<?xml version="1.0" standalone="no"?><!DOCTYPE svg PUBLIC "-//W3C//DTD SVG 1.1//EN" "http://www.w3.org/Graphics/SVG/1.1/DTD/svg11.dtd"><svg t="1519716717655" class="icon" style="" viewBox="0 0 1024 1024" version="1.1" xmlns="http://www.w3.org/2000/svg" p-id="9028" xmlns:xlink="http://www.w3.org/1999/xlink" width="200" height="200"><defs><style type="text/css"></style></defs><path d="M591.817883 1023.9985a31.995953 31.995953 0 0 1-22.633967-9.371986l-175.845742-175.841743a31.999953 31.999953 0 0 1 22.625967-54.62792h175.845742c17.673974 0 31.999953 14.325979 31.999953 31.999953V991.998547a32.003953 32.003953 0 0 1-31.991953 31.999953z m-98.595855-175.841742l66.591902 66.587902v-66.587902h-66.591902z" fill="#2D527C" p-id="9029"></path><path d="M923.319397 1023.9985H767.999625c-17.673974 0-31.999953-14.325979-31.999953-31.999953s14.325979-31.999953 31.999953-31.999953h155.319772a4.639993 4.639993 0 0 0 4.635994-4.635993V68.635899A4.639993 4.639993 0 0 0 923.319397 63.999906H447.966094v738.902918l166.471756 166.469756c12.495982 12.495982 12.495982 32.757952 0 45.253934-12.495982 12.495982-32.755952 12.499982-45.257934 0l-175.841742-175.841743a31.999953 31.999953 0 0 1-9.371986-22.627967V31.999953c0-17.673974 14.325979-31.999953 31.999953-31.999953h507.349256c37.845945 0 68.635899 30.789955 68.6359 68.635899v886.726702C991.955297 993.208545 961.161342 1023.9985 923.319397 1023.9985z" fill="#2D527C" p-id="9030"></path><path d="M415.968141 31.999953v784.156851L591.809883 991.998547h-351.839485V31.999953z" fill="#CEE8FA" p-id="9031"></path><path d="M591.873883 1023.9985H239.966398c-17.673974 0-31.999953-14.325979-31.999953-31.999953V31.999953c0-17.673974 14.325979-31.999953 31.999953-31.999953h175.997743c17.673974 0 31.999953 14.325979 31.999953 31.999953v770.902871l165.297758 165.293758A31.919953 31.919953 0 0 1 623.873836 991.998547c0 17.673974-14.325979 31.999953-31.999953 31.999953z m-319.907531-63.999906h242.589644l-121.215822-121.215823a31.999953 31.999953 0 0 1-9.371986-22.627967V63.999906h-111.999836v895.998688h-0.002z" fill="#2D527C" p-id="9032"></path><path d="M64.048656 68.635899v886.726702c0 20.23397 16.403976 36.635946 36.635947 36.635946h139.285795V31.999953H100.684603c-20.23397 0-36.635946 16.401976-36.635947 36.635946z" fill="#CEE8FA" p-id="9033"></path><path d="M239.966398 1023.9985H100.684603c-37.845945 0-68.635899-30.789955-68.6359-68.635899V68.635899C32.048703 30.789955 62.838658 0 100.684603 0h139.281795c17.673974 0 31.999953 14.325979 31.999954 31.999953v959.998594c0 17.673974-14.325979 31.999953-31.999954 31.999953zM100.684603 63.999906a4.639993 4.639993 0 0 0-4.635994 4.635993v886.726702A4.639993 4.639993 0 0 0 100.684603 959.998594h107.281842V63.999906H100.684603z" fill="#2D527C" p-id="9034"></path></svg>